<svg xmlns="http://www.w3.org/2000/svg" viewBox="0 0 128 128"><rect x="0" y="0" width="8" height="8" fill="#ef476f"/><rect x="120" y="0" width="8" height="8" fill="#ef476f"/><rect x="8" y="0" width="8" height="8" fill="#2a9d8f"/><rect x="112" y="0" width="8" height="8" fill="#2a9d8f"/><rect x="24" y="0" width="8" height="8" fill="#2a9d8f"/><rect x="96" y="0" width="8" height="8" fill="#2a9d8f"/><rect x="8" y="8" width="8" height="8" fill="#ef476f"/><rect x="112" y="8" width="8" height="8" fill="#ef476f"/><rect x="16" y="8" width="8" height="8" fill="#2a9d8f"/><rect x="104" y="8" width="8" height="8" fill="#2a9d8f"/><rect x="24" y="8" width="8" height="8" fill="#ef476f"/><rect x="96" y="8" width="8" height="8" fill="#ef476f"/><rect x="32" y="8" width="8" height="8" fill="#2a9d8f"/><rect x="88" y="8" width="8" height="8" fill="#2a9d8f"/><rect x="48" y="8" width="8" height="8" fill="#2a9d8f"/><rect x="72" y="8" width="8" height="8" fill="#2a9d8f"/><rect x="56" y="8" width="8" height="8" fill="#ef476f"/><rect x="64" y="8" width="8" height="8" fill="#ef476f"/><rect x="0" y="16" width="8" height="8" fill="#ef476f"/><rect x="120" y="16" width="8" height="8" fill="#ef476f"/><rect x="48" y="16" width="8" height="8" fill="#ef476f"/><rect x="72" y="16" width="8" height="8" fill="#ef476f"/><rect x="8" y="24" width="8" height="8" fill="#ef476f"/><rect x="112" y="24" width="8" height="8" fill="#ef476f"/><rect x="40" y="24" width="8" height="8" fill="#ef476f"/><rect x="80" y="24" width="8" height="8" fill="#ef476f"/><rect x="48" y="24" width="8" height="8" fill="#2a9d8f"/><rect x="72" y="24" width="8" height="8" fill="#2a9d8f"/><rect x="16" y="32" width="8" height="8" fill="#ef476f"/><rect x="104" y="32" width="8" height="8" fill="#ef476f"/><rect x="40" y="32" width="8" height="8" fill="#2a9d8f"/><rect x="80" y="32" width="8" height="8" fill="#2a9d8f"/><rect x="24" y="40" width="8" height="8" fill="#ef476f"/><rect x="96" y="40" width="8" height="8" fill="#ef476f"/><rect x="40" y="40" width="8" height="8" fill="#ef476f"/><rect x="80" y="40" width="8" height="8" fill="#ef476f"/><rect x="56" y="40" width="8" height="8" fill="#ef476f"/><rect x="64" y="40" width="8" height="8" fill="#ef476f"/><rect x="16" y="48" width="8" height="8" fill="#ef476f"/><rect x="104" y="48" width="8" height="8" fill="#ef476f"/><rect x="24" y="48" width="8" height="8" fill="#2a9d8f"/><rect x="96" y="48" width="8" height="8" fill="#2a9d8f"/><rect x="32" y="48" width="8" height="8" fill="#ef476f"/><rect x="88" y="48" width="8" height="8" fill="#ef476f"/><rect x="48" y="48" width="8" height="8" fill="#ef476f"/><rect x="72" y="48" width="8" height="8" fill="#ef476f"/><rect x="56" y="48" width="8" height="8" fill="#2a9d8f"/><rect x="64" y="48" width="8" height="8" fill="#2a9d8f"/><rect x="0" y="56" width="8" height="8" fill="#2a9d8f"/><rect x="120" y="56" width="8" height="8" fill="#2a9d8f"/><rect x="24" y="56" width="8" height="8" fill="#ef476f"/><rect x="96" y="56" width="8" height="8" fill="#ef476f"/><rect x="40" y="56" width="8" height="8" fill="#ef476f"/><rect x="80" y="56" width="8" height="8" fill="#ef476f"/><rect x="48" y="56" width="8" height="8" fill="#2a9d8f"/><rect x="72" y="56" width="8" height="8" fill="#2a9d8f"/><rect x="0" y="64" width="8" height="8" fill="#ef476f"/><rect x="120" y="64" width="8" height="8" fill="#ef476f"/><rect x="24" y="64" width="8" height="8" fill="#2a9d8f"/><rect x="96" y="64" width="8" height="8" fill="#2a9d8f"/><rect x="40" y="64" width="8" height="8" fill="#2a9d8f"/><rect x="80" y="64" width="8" height="8" fill="#2a9d8f"/><rect x="56" y="64" width="8" height="8" fill="#2a9d8f"/><rect x="64" y="64" width="8" height="8" fill="#2a9d8f"/><rect x="0" y="72" width="8" height="8" fill="#2a9d8f"/><rect x="120" y="72" width="8" height="8" fill="#2a9d8f"/><rect x="24" y="72" width="8" height="8" fill="#ef476f"/><rect x="96" y="72" width="8" height="8" fill="#ef476f"/><rect x="40" y="72" width="8" height="8" fill="#ef476f"/><rect x="80" y="72" width="8" height="8" fill="#ef476f"/><rect x="56" y="72" width="8" height="8" fill="#ef476f"/><rect x="64" y="72" width="8" height="8" fill="#ef476f"/><rect x="0" y="80" width="8" height="8" fill="#ef476f"/><rect x="120" y="80" width="8" height="8" fill="#ef476f"/><rect x="56" y="80" width="8" height="8" fill="#2a9d8f"/><rect x="64" y="80" width="8" height="8" fill="#2a9d8f"/><rect x="32" y="88" width="8" height="8" fill="#2a9d8f"/><rect x="88" y="88" width="8" height="8" fill="#2a9d8f"/><rect x="56" y="96" width="8" height="8" fill="#2a9d8f"/><rect x="64" y="96" width="8" height="8" fill="#2a9d8f"/><rect x="8" y="104" width="8" height="8" fill="#ef476f"/><rect x="112" y="104" width="8" height="8" fill="#ef476f"/><rect x="16" y="104" width="8" height="8" fill="#2a9d8f"/><rect x="104" y="104" width="8" height="8" fill="#2a9d8f"/><rect x="32" y="104" width="8" height="8" fill="#2a9d8f"/><rect x="88" y="104" width="8" height="8" fill="#2a9d8f"/><rect x="40" y="104" width="8" height="8" fill="#ef476f"/><rect x="80" y="104" width="8" height="8" fill="#ef476f"/><rect x="56" y="104" width="8" height="8" fill="#ef476f"/><rect x="64" y="104" width="8" height="8" fill="#ef476f"/><rect x="0" y="112" width="8" height="8" fill="#ef476f"/><rect x="120" y="112" width="8" height="8" fill="#ef476f"/><rect x="16" y="112" width="8" height="8" fill="#ef476f"/><rect x="104" y="112" width="8" height="8" fill="#ef476f"/><rect x="48" y="112" width="8" height="8" fill="#ef476f"/><rect x="72" y="112" width="8" height="8" fill="#ef476f"/><rect x="16" y="120" width="8" height="8" fill="#2a9d8f"/><rect x="104" y="120" width="8" height="8" fill="#2a9d8f"/><rect x="24" y="120" width="8" height="8" fill="#ef476f"/><rect x="96" y="120" width="8" height="8" fill="#ef476f"/></svg>
