<svg xmlns="http://www.w3.org/2000/svg" viewBox="0 0 128 128"><rect x="40" y="0" width="8" height="8" fill="#457b9d"/><rect x="80" y="0" width="8" height="8" fill="#457b9d"/><rect x="48" y="0" width="8" height="8" fill="#ef476f"/><rect x="72" y="0" width="8" height="8" fill="#ef476f"/><rect x="8" y="8" width="8" height="8" fill="#ef476f"/><rect x="112" y="8" width="8" height="8" fill="#ef476f"/><rect x="24" y="8" width="8" height="8" fill="#ef476f"/><rect x="96" y="8" width="8" height="8" fill="#ef476f"/><rect x="48" y="8" width="8" height="8" fill="#457b9d"/><rect x="72" y="8" width="8" height="8" fill="#457b9d"/><rect x="24" y="16" width="8" height="8" fill="#457b9d"/><rect x="96" y="16" width="8" height="8" fill="#457b9d"/><rect x="32" y="16" width="8" height="8" fill="#ef476f"/><rect x="88" y="16" width="8" height="8" fill="#ef476f"/><rect x="48" y="16" width="8" height="8" fill="#ef476f"/><rect x="72" y="16" width="8" height="8" fill="#ef476f"/><rect x="8" y="24" width="8" height="8" fill="#ef476f"/><rect x="112" y="24" width="8" height="8" fill="#ef476f"/><rect x="56" y="24" width="8" height="8" fill="#ef476f"/><rect x="64" y="24" width="8" height="8" fill="#ef476f"/><rect x="0" y="32" width="8" height="8" fill="#ef476f"/><rect x="120" y="32" width="8" height="8" fill="#ef476f"/><rect x="8" y="32" width="8" height="8" fill="#457b9d"/><rect x="112" y="32" width="8" height="8" fill="#457b9d"/><rect x="40" y="32" width="8" height="8" fill="#457b9d"/><rect x="80" y="32" width="8" height="8" fill="#457b9d"/><rect x="48" y="32" width="8" height="8" fill="#ef476f"/><rect x="72" y="32" width="8" height="8" fill="#ef476f"/><rect x="56" y="32" width="8" height="8" fill="#457b9d"/><rect x="64" y="32" width="8" height="8" fill="#457b9d"/><rect x="8" y="40" width="8" height="8" fill="#ef476f"/><rect x="112" y="40" width="8" height="8" fill="#ef476f"/><rect x="32" y="40" width="8" height="8" fill="#457b9d"/><rect x="88" y="40" width="8" height="8" fill="#457b9d"/><rect x="56" y="40" width="8" height="8" fill="#ef476f"/><rect x="64" y="40" width="8" height="8" fill="#ef476f"/><rect x="0" y="48" width="8" height="8" fill="#ef476f"/><rect x="120" y="48" width="8" height="8" fill="#ef476f"/><rect x="8" y="48" width="8" height="8" fill="#457b9d"/><rect x="112" y="48" width="8" height="8" fill="#457b9d"/><rect x="16" y="48" width="8" height="8" fill="#ef476f"/><rect x="104" y="48" width="8" height="8" fill="#ef476f"/><rect x="48" y="48" width="8" height="8" fill="#ef476f"/><rect x="72" y="48" width="8" height="8" fill="#ef476f"/><rect x="0" y="56" width="8" height="8" fill="#457b9d"/><rect x="120" y="56" width="8" height="8" fill="#457b9d"/><rect x="8" y="56" width="8" height="8" fill="#ef476f"/><rect x="112" y="56" width="8" height="8" fill="#ef476f"/><rect x="32" y="56" width="8" height="8" fill="#457b9d"/><rect x="88" y="56" width="8" height="8" fill="#457b9d"/><rect x="48" y="56" width="8" height="8" fill="#457b9d"/><rect x="72" y="56" width="8" height="8" fill="#457b9d"/><rect x="56" y="56" width="8" height="8" fill="#ef476f"/><rect x="64" y="56" width="8" height="8" fill="#ef476f"/><rect x="24" y="64" width="8" height="8" fill="#457b9d"/><rect x="96" y="64" width="8" height="8" fill="#457b9d"/><rect x="32" y="64" width="8" height="8" fill="#ef476f"/><rect x="88" y="64" width="8" height="8" fill="#ef476f"/><rect x="40" y="64" width="8" height="8" fill="#457b9d"/><rect x="80" y="64" width="8" height="8" fill="#457b9d"/><rect x="48" y="64" width="8" height="8" fill="#ef476f"/><rect x="72" y="64" width="8" height="8" fill="#ef476f"/><rect x="56" y="64" width="8" height="8" fill="#457b9d"/><rect x="64" y="64" width="8" height="8" fill="#457b9d"/><rect x="0" y="72" width="8" height="8" fill="#457b9d"/><rect x="120" y="72" width="8" height="8" fill="#457b9d"/><rect x="32" y="72" width="8" height="8" fill="#457b9d"/><rect x="88" y="72" width="8" height="8" fill="#457b9d"/><rect x="0" y="80" width="8" height="8" fill="#ef476f"/><rect x="120" y="80" width="8" height="8" fill="#ef476f"/><rect x="8" y="80" width="8" height="8" fill="#457b9d"/><rect x="112" y="80" width="8" height="8" fill="#457b9d"/><rect x="40" y="80" width="8" height="8" fill="#457b9d"/><rect x="80" y="80" width="8" height="8" fill="#457b9d"/><rect x="56" y="80" width="8" height="8" fill="#457b9d"/><rect x="64" y="80" width="8" height="8" fill="#457b9d"/><rect x="16" y="88" width="8" height="8" fill="#457b9d"/><rect x="104" y="88" width="8" height="8" fill="#457b9d"/><rect x="24" y="88" width="8" height="8" fill="#ef476f"/><rect x="96" y="88" width="8" height="8" fill="#ef476f"/><rect x="56" y="88" width="8" height="8" fill="#ef476f"/><rect x="64" y="88" width="8" height="8" fill="#ef476f"/><rect x="0" y="96" width="8" height="8" fill="#ef476f"/><rect x="120" y="96" width="8" height="8" fill="#ef476f"/><rect x="8" y="96" width="8" height="8" fill="#457b9d"/><rect x="112" y="96" width="8" height="8" fill="#457b9d"/><rect x="48" y="96" width="8" height="8" fill="#ef476f"/><rect x="72" y="96" width="8" height="8" fill="#ef476f"/><rect x="56" y="96" width="8" height="8" fill="#457b9d"/><rect x="64" y="96" width="8" height="8" fill="#457b9d"/><rect x="32" y="104" width="8" height="8" fill="#457b9d"/><rect x="88" y="104" width="8" height="8" fill="#457b9d"/><rect x="56" y="104" width="8" height="8" fill="#ef476f"/><rect x="64" y="104" width="8" height="8" fill="#ef476f"/><rect x="8" y="112" width="8" height="8" fill="#457b9d"/><rect x="112" y="112" width="8" height="8" fill="#457b9d"/><rect x="24" y="112" width="8" height="8" fill="#457b9d"/><rect x="96" y="112" width="8" height="8" fill="#457b9d"/><rect x="32" y="112" width="8" height="8" fill="#ef476f"/><rect x="88" y="112" width="8" height="8" fill="#ef476f"/><rect x="8" y="120" width="8" height="8" fill="#ef476f"/><rect x="112" y="120" width="8" height="8" fill="#ef476f"/><rect x="16" y="120" width="8" height="8" fill="#457b9d"/><rect x="104" y="120" width="8" height="8" fill="#457b9d"/><rect x="24" y="120" width="8" height="8" fill="#ef476f"/><rect x="96" y="120" width="8" height="8" fill="#ef476f"/><rect x="40" y="120" width="8" height="8" fill="#ef476f"/><rect x="80" y="120" width="8" height="8" fill="#ef476f"/><rect x="56" y="120" width="8" height="8" fill="#ef476f"/><rect x="64" y="120" width="8" height="8" fill="#ef476f"/></svg>
