<svg xmlns="http://www.w3.org/2000/svg" viewBox="0 0 128 128"><rect x="0" y="0" width="8" height="8" fill="#ffd166"/><rect x="120" y="0" width="8" height="8" fill="#ffd166"/><rect x="8" y="0" width="8" height="8" fill="#f1c453"/><rect x="112" y="0" width="8" height="8" fill="#f1c453"/><rect x="24" y="0" width="8" height="8" fill="#f1c453"/><rect x="96" y="0" width="8" height="8" fill="#f1c453"/><rect x="32" y="0" width="8" height="8" fill="#ffd166"/><rect x="88" y="0" width="8" height="8" fill="#ffd166"/><rect x="40" y="0" width="8" height="8" fill="#f1c453"/><rect x="80" y="0" width="8" height="8" fill="#f1c453"/><rect x="48" y="0" width="8" height="8" fill="#ffd166"/><rect x="72" y="0" width="8" height="8" fill="#ffd166"/><rect x="56" y="0" width="8" height="8" fill="#f1c453"/><rect x="64" y="0" width="8" height="8" fill="#f1c453"/><rect x="40" y="8" width="8" height="8" fill="#ffd166"/><rect x="80" y="8" width="8" height="8" fill="#ffd166"/><rect x="8" y="16" width="8" height="8" fill="#f1c453"/><rect x="112" y="16" width="8" height="8" fill="#f1c453"/><rect x="16" y="16" width="8" height="8" fill="#ffd166"/><rect x="104" y="16" width="8" height="8" fill="#ffd166"/><rect x="32" y="16" width="8" height="8" fill="#ffd166"/><rect x="88" y="16" width="8" height="8" fill="#ffd166"/><rect x="48" y="16" width="8" height="8" fill="#ffd166"/><rect x="72" y="16" width="8" height="8" fill="#ffd166"/><rect x="40" y="24" width="8" height="8" fill="#ffd166"/><rect x="80" y="24" width="8" height="8" fill="#ffd166"/><rect x="24" y="32" width="8" height="8" fill="#f1c453"/><rect x="96" y="32" width="8" height="8" fill="#f1c453"/><rect x="32" y="32" width="8" height="8" fill="#ffd166"/><rect x="88" y="32" width="8" height="8" fill="#ffd166"/><rect x="56" y="32" width="8" height="8" fill="#f1c453"/><rect x="64" y="32" width="8" height="8" fill="#f1c453"/><rect x="8" y="40" width="8" height="8" fill="#ffd166"/><rect x="112" y="40" width="8" height="8" fill="#ffd166"/><rect x="16" y="40" width="8" height="8" fill="#f1c453"/><rect x="104" y="40" width="8" height="8" fill="#f1c453"/><rect x="24" y="40" width="8" height="8" fill="#ffd166"/><rect x="96" y="40" width="8" height="8" fill="#ffd166"/><rect x="40" y="40" width="8" height="8" fill="#ffd166"/><rect x="80" y="40" width="8" height="8" fill="#ffd166"/><rect x="48" y="40" width="8" height="8" fill="#f1c453"/><rect x="72" y="40" width="8" height="8" fill="#f1c453"/><rect x="0" y="48" width="8" height="8" fill="#ffd166"/><rect x="120" y="48" width="8" height="8" fill="#ffd166"/><rect x="8" y="48" width="8" height="8" fill="#f1c453"/><rect x="112" y="48" width="8" height="8" fill="#f1c453"/><rect x="16" y="48" width="8" height="8" fill="#ffd166"/><rect x="104" y="48" width="8" height="8" fill="#ffd166"/><rect x="0" y="56" width="8" height="8" fill="#f1c453"/><rect x="120" y="56" width="8" height="8" fill="#f1c453"/><rect x="16" y="56" width="8" height="8" fill="#f1c453"/><rect x="104" y="56" width="8" height="8" fill="#f1c453"/><rect x="32" y="56" width="8" height="8" fill="#f1c453"/><rect x="88" y="56" width="8" height="8" fill="#f1c453"/><rect x="0" y="64" width="8" height="8" fill="#ffd166"/><rect x="120" y="64" width="8" height="8" fill="#ffd166"/><rect x="16" y="64" width="8" height="8" fill="#ffd166"/><rect x="104" y="64" width="8" height="8" fill="#ffd166"/><rect x="24" y="64" width="8" height="8" fill="#f1c453"/><rect x="96" y="64" width="8" height="8" fill="#f1c453"/><rect x="32" y="64" width="8" height="8" fill="#ffd166"/><rect x="88" y="64" width="8" height="8" fill="#ffd166"/><rect x="56" y="64" width="8" height="8" fill="#f1c453"/><rect x="64" y="64" width="8" height="8" fill="#f1c453"/><rect x="16" y="72" width="8" height="8" fill="#f1c453"/><rect x="104" y="72" width="8" height="8" fill="#f1c453"/><rect x="24" y="72" width="8" height="8" fill="#ffd166"/><rect x="96" y="72" width="8" height="8" fill="#ffd166"/><rect x="48" y="72" width="8" height="8" fill="#f1c453"/><rect x="72" y="72" width="8" height="8" fill="#f1c453"/><rect x="16" y="80" width="8" height="8" fill="#ffd166"/><rect x="104" y="80" width="8" height="8" fill="#ffd166"/><rect x="32" y="80" width="8" height="8" fill="#ffd166"/><rect x="88" y="80" width="8" height="8" fill="#ffd166"/><rect x="48" y="80" width="8" height="8" fill="#ffd166"/><rect x="72" y="80" width="8" height="8" fill="#ffd166"/><rect x="24" y="88" width="8" height="8" fill="#ffd166"/><rect x="96" y="88" width="8" height="8" fill="#ffd166"/><rect x="56" y="88" width="8" height="8" fill="#ffd166"/><rect x="64" y="88" width="8" height="8" fill="#ffd166"/><rect x="0" y="96" width="8" height="8" fill="#ffd166"/><rect x="120" y="96" width="8" height="8" fill="#ffd166"/><rect x="24" y="96" width="8" height="8" fill="#f1c453"/><rect x="96" y="96" width="8" height="8" fill="#f1c453"/><rect x="40" y="96" width="8" height="8" fill="#f1c453"/><rect x="80" y="96" width="8" height="8" fill="#f1c453"/><rect x="24" y="104" width="8" height="8" fill="#ffd166"/><rect x="96" y="104" width="8" height="8" fill="#ffd166"/><rect x="32" y="112" width="8" height="8" fill="#ffd166"/><rect x="88" y="112" width="8" height="8" fill="#ffd166"/><rect x="48" y="112" width="8" height="8" fill="#ffd166"/><rect x="72" y="112" width="8" height="8" fill="#ffd166"/><rect x="56" y="112" width="8" height="8" fill="#f1c453"/><rect x="64" y="112" width="8" height="8" fill="#f1c453"/><rect x="16" y="120" width="8" height="8" fill="#f1c453"/><rect x="104" y="120" width="8" height="8" fill="#f1c453"/></svg>
